<svg xmlns="http://www.w3.org/2000/svg" xmlns:xlink="http://www.w3.org/1999/xlink" width="500" zoomAndPan="magnify" viewBox="0 0 375 374.999991" height="500" preserveAspectRatio="xMidYMid meet" version="1.0"><defs><clipPath id="830580265e"><path d="M 26.367188 0 L 348.632812 0 L 348.632812 375 L 26.367188 375 Z M 26.367188 0 " clip-rule="nonzero"/></clipPath><clipPath id="afc5aeee5f"><path d="M 187.5 0 L 348.632812 93.75 L 348.632812 281.25 L 187.5 375 L 26.367188 281.25 L 26.367188 93.75 Z M 187.5 0 " clip-rule="nonzero"/></clipPath><clipPath id="ed7becaab4"><path d="M 50 51.777344 L 326 51.777344 L 326 332.953125 L 50 332.953125 Z M 50 51.777344 " clip-rule="nonzero"/></clipPath></defs><g clip-path="url(#830580265e)"><g clip-path="url(#afc5aeee5f)"><path fill="#e89c08" d="M 26.367188 0 L 348.632812 0 L 348.632812 375.136719 L 26.367188 375.136719 Z M 26.367188 0 " fill-opacity="1" fill-rule="nonzero"/></g></g><g clip-path="url(#ed7becaab4)"><path fill="#1a1919" d="M 137.714844 244.21875 L 237.101562 244.21875 C 237 244.703125 236.84375 245.171875 236.636719 245.621094 C 235.636719 247.6875 234.570312 249.691406 233.570312 251.691406 C 230.898438 256.957031 228.085938 262.429688 225.164062 267.765625 C 224.796875 268.226562 224.351562 268.585938 223.828125 268.855469 C 223.304688 269.121094 222.75 269.269531 222.164062 269.296875 C 199.128906 269.433594 175.738281 269.433594 152.59375 269.296875 C 151.578125 269.304688 150.707031 268.953125 149.988281 268.234375 C 146.65625 261.894531 143.320312 255.355469 140.117188 249.039062 L 137.769531 244.484375 C 137.769531 244.421875 137.714844 244.277344 137.714844 244.21875 Z M 162.25 294.808594 C 164.707031 297.933594 167.484375 300.738281 170.578125 303.222656 C 173.675781 305.710938 177.011719 307.816406 180.589844 309.542969 L 180.589844 325.582031 C 180.589844 326.035156 180.636719 326.480469 180.722656 326.921875 C 180.8125 327.363281 180.941406 327.789062 181.113281 328.207031 C 181.285156 328.621094 181.496094 329.015625 181.746094 329.390625 C 181.996094 329.765625 182.28125 330.113281 182.597656 330.429688 C 182.917969 330.75 183.265625 331.03125 183.636719 331.28125 C 184.011719 331.535156 184.40625 331.746094 184.824219 331.917969 C 185.238281 332.089844 185.667969 332.21875 186.109375 332.308594 C 186.550781 332.394531 186.996094 332.4375 187.445312 332.4375 C 187.898438 332.4375 188.34375 332.394531 188.785156 332.308594 C 189.226562 332.21875 189.65625 332.089844 190.070312 331.917969 C 190.484375 331.746094 190.882812 331.535156 191.253906 331.28125 C 191.628906 331.03125 191.976562 330.75 192.292969 330.429688 C 192.613281 330.113281 192.898438 329.765625 193.148438 329.390625 C 193.398438 329.015625 193.609375 328.621094 193.78125 328.207031 C 193.953125 327.789062 194.082031 327.363281 194.171875 326.921875 C 194.257812 326.480469 194.300781 326.035156 194.300781 325.582031 L 194.300781 309.261719 L 194.433594 309.195312 C 197.097656 307.984375 199.613281 306.519531 201.984375 304.808594 C 209.070312 299.289062 214.902344 292.667969 219.488281 284.945312 L 155.128906 284.945312 C 157.230469 288.429688 159.605469 291.71875 162.25 294.808594 Z M 131.074219 121.234375 L 130.644531 121.351562 C 130.828125 114.140625 132.277344 107.191406 134.996094 100.511719 L 135.070312 100.308594 C 135.714844 98.753906 136.457031 97.179688 137.304688 95.589844 C 137.601562 95.042969 137.878906 94.445312 138.199219 93.890625 C 138.777344 92.875 139.464844 91.867188 140.140625 90.851562 C 140.648438 90.089844 141.121094 89.304688 141.667969 88.582031 C 141.777344 88.433594 141.851562 88.285156 141.964844 88.144531 C 144.132812 85.320312 146.5625 82.746094 149.253906 80.414062 C 148.171875 78.078125 146.871094 75.867188 145.355469 73.785156 C 143.609375 71.640625 141.660156 69.695312 139.507812 67.957031 C 137.753906 66.660156 135.90625 65.519531 133.957031 64.539062 C 133.574219 64.308594 133.214844 64.039062 132.882812 63.738281 C 132.550781 63.4375 132.25 63.109375 131.980469 62.75 C 131.710938 62.390625 131.480469 62.007812 131.285156 61.601562 C 131.089844 61.199219 130.9375 60.78125 130.824219 60.347656 C 130.710938 59.910156 130.640625 59.472656 130.609375 59.023438 C 130.582031 58.574219 130.597656 58.128906 130.65625 57.683594 C 130.714844 57.238281 130.8125 56.804688 130.957031 56.378906 C 131.097656 55.953125 131.28125 55.546875 131.5 55.15625 C 131.957031 54.390625 132.535156 53.738281 133.238281 53.191406 C 133.941406 52.648438 134.722656 52.253906 135.574219 52.007812 C 136.46875 51.785156 137.371094 51.734375 138.28125 51.851562 C 139.195312 51.972656 140.050781 52.253906 140.855469 52.699219 C 145.558594 55.058594 149.699219 58.167969 153.28125 62.019531 C 155.230469 64.121094 156.984375 66.371094 158.539062 68.777344 C 159.339844 70.027344 160.058594 71.324219 160.699219 72.660156 C 166.140625 69.933594 171.859375 68.035156 177.855469 66.972656 C 178.46875 66.863281 179.089844 66.765625 179.703125 66.675781 C 181.9375 66.324219 184.183594 66.109375 186.445312 66.035156 L 186.488281 66.035156 C 188.617188 66.023438 190.742188 66.144531 192.859375 66.398438 C 193.890625 66.503906 194.921875 66.660156 195.957031 66.824219 C 197.648438 67.101562 199.472656 67.449219 201.441406 67.921875 L 202.410156 68.230469 C 206.503906 69.308594 210.445312 70.796875 214.234375 72.699219 C 214.882812 71.34375 215.613281 70.03125 216.425781 68.765625 C 217.980469 66.367188 219.730469 64.121094 221.679688 62.027344 C 225.253906 58.171875 229.382812 55.0625 234.074219 52.699219 C 234.878906 52.253906 235.738281 51.972656 236.648438 51.851562 C 237.5625 51.734375 238.464844 51.785156 239.355469 52.007812 C 240.214844 52.25 240.996094 52.644531 241.707031 53.1875 C 242.414062 53.734375 242.996094 54.386719 243.453125 55.15625 C 243.675781 55.546875 243.855469 55.953125 243.996094 56.378906 C 244.140625 56.804688 244.238281 57.238281 244.296875 57.683594 C 244.355469 58.128906 244.371094 58.574219 244.34375 59.023438 C 244.3125 59.46875 244.242188 59.910156 244.128906 60.34375 C 244.015625 60.78125 243.859375 61.199219 243.667969 61.601562 C 243.472656 62.007812 243.242188 62.386719 242.972656 62.746094 C 242.703125 63.105469 242.402344 63.4375 242.070312 63.738281 C 241.738281 64.039062 241.378906 64.304688 240.996094 64.539062 C 239.050781 65.519531 237.199219 66.660156 235.445312 67.957031 C 233.292969 69.703125 231.34375 71.652344 229.601562 73.808594 C 228.09375 75.875 226.800781 78.070312 225.722656 80.386719 C 228.214844 82.566406 230.484375 84.953125 232.527344 87.554688 C 232.683594 87.753906 232.847656 87.941406 233 88.136719 C 233.152344 88.335938 233.226562 88.394531 233.335938 88.542969 C 235.066406 90.917969 236.605469 93.414062 237.953125 96.023438 C 239.300781 98.636719 240.4375 101.339844 241.371094 104.125 C 242.300781 106.914062 243.011719 109.757812 243.503906 112.65625 C 243.996094 115.554688 244.261719 118.472656 244.304688 121.410156 C 242.703125 120.835938 241.148438 120.253906 239.585938 119.679688 C 238.808594 119.386719 238.007812 119.101562 237.234375 118.8125 C 236.066406 118.375 234.910156 117.957031 233.746094 117.523438 C 231.003906 116.496094 228.261719 115.460938 225.519531 114.480469 C 219.847656 112.4375 214.0625 110.386719 208.226562 108.351562 C 202.390625 106.320312 196.5 104.304688 190.632812 102.320312 C 189.71875 102.042969 188.785156 101.910156 187.832031 101.921875 C 186.441406 101.949219 185.085938 102.171875 183.761719 102.589844 C 174.207031 105.878906 164.636719 109.292969 155.1875 112.679688 L 145.742188 116.058594 L 140.675781 117.851562 L 131.402344 121.144531 Z M 225.65625 80.332031 L 225.78125 80.039062 C 225.746094 80.140625 225.699219 80.230469 225.65625 80.332031 Z M 149.285156 80.382812 C 149.238281 80.269531 149.183594 80.164062 149.132812 80.046875 Z M 317.816406 178.25 C 315.230469 174.511719 312.203125 171.171875 308.734375 168.230469 C 305.265625 165.292969 301.476562 162.851562 297.363281 160.914062 C 277.699219 150.824219 257.445312 142.109375 236.597656 134.769531 C 227.992188 131.480469 219.519531 128.496094 210.515625 125.234375 C 206.917969 123.894531 203.179688 122.628906 199.511719 121.230469 L 199.511719 121.429688 C 199.78125 122.40625 200.117188 123.363281 200.511719 124.296875 C 202.847656 130.636719 205.25 136.839844 207.578125 143.109375 C 214.117188 160.515625 220.859375 178.527344 227.925781 196.070312 C 232.238281 206.675781 237.417969 216.835938 243.46875 226.550781 C 244.503906 228.292969 245.65625 229.953125 246.933594 231.527344 C 248.207031 233.097656 249.59375 234.570312 251.082031 235.941406 C 252.574219 237.3125 254.15625 238.570312 255.832031 239.710938 C 257.503906 240.851562 259.253906 241.863281 261.074219 242.746094 C 262.898438 243.632812 264.773438 244.378906 266.707031 244.988281 C 268.636719 245.601562 270.601562 246.066406 272.601562 246.390625 C 274.601562 246.714844 276.613281 246.890625 278.640625 246.917969 C 280.664062 246.949219 282.683594 246.828125 284.691406 246.566406 C 288.46875 246.136719 292.128906 245.234375 295.671875 243.851562 C 299.214844 242.472656 302.519531 240.660156 305.589844 238.414062 C 308.773438 236.121094 311.628906 233.472656 314.160156 230.476562 C 316.691406 227.476562 318.824219 224.21875 320.550781 220.695312 C 321.386719 219.03125 322.105469 217.320312 322.710938 215.5625 C 323.320312 213.804688 323.808594 212.011719 324.175781 210.191406 C 324.546875 208.367188 324.792969 206.527344 324.921875 204.671875 C 325.046875 202.816406 325.050781 200.960938 324.929688 199.101562 C 324.808594 197.246094 324.566406 195.40625 324.203125 193.582031 C 323.839844 191.757812 323.359375 189.964844 322.757812 188.203125 C 322.160156 186.445312 321.445312 184.730469 320.617188 183.0625 C 319.789062 181.398438 318.855469 179.792969 317.816406 178.25 Z M 167.265625 144.363281 C 170.203125 136.683594 173.136719 129.007812 176.136719 121.328125 C 176.085938 121.320312 176.042969 121.300781 176.007812 121.261719 C 175.871094 121.261719 175.738281 121.328125 175.605469 121.328125 C 175.195312 121.429688 174.792969 121.5625 174.40625 121.730469 C 167.730469 124.199219 160.996094 126.664062 154.328125 129.132812 C 140.515625 134.199219 126.175781 139.472656 112.234375 144.945312 C 97.261719 150.363281 83.03125 157.308594 69.542969 165.773438 C 67.746094 166.949219 66.042969 168.253906 64.441406 169.683594 C 62.835938 171.117188 61.347656 172.65625 59.972656 174.3125 C 58.601562 175.964844 57.355469 177.710938 56.246094 179.550781 C 55.132812 181.390625 54.164062 183.300781 53.335938 185.285156 C 52.507812 187.269531 51.835938 189.304688 51.3125 191.386719 C 50.789062 193.472656 50.425781 195.585938 50.21875 197.726562 C 50.011719 199.863281 49.964844 202.007812 50.078125 204.152344 C 50.191406 206.300781 50.464844 208.425781 50.898438 210.53125 C 51.5 213.449219 52.382812 216.277344 53.542969 219.019531 C 54.707031 221.761719 56.125 224.363281 57.804688 226.824219 C 59.480469 229.285156 61.382812 231.558594 63.507812 233.644531 C 65.632812 235.730469 67.945312 237.585938 70.4375 239.214844 C 72.855469 240.839844 75.410156 242.214844 78.097656 243.335938 C 80.785156 244.457031 83.558594 245.308594 86.414062 245.886719 C 89.265625 246.464844 92.152344 246.757812 95.0625 246.769531 C 97.976562 246.78125 100.863281 246.507812 103.722656 245.949219 C 105.351562 245.625 106.957031 245.207031 108.539062 244.695312 C 110.121094 244.183594 111.667969 243.582031 113.179688 242.890625 C 114.691406 242.199219 116.15625 241.421875 117.578125 240.5625 C 119 239.699219 120.367188 238.757812 121.679688 237.738281 C 122.992188 236.71875 124.242188 235.628906 125.429688 234.464844 C 126.613281 233.296875 127.726562 232.070312 128.773438 230.773438 C 129.816406 229.480469 130.78125 228.132812 131.667969 226.726562 C 132.554688 225.320312 133.355469 223.867188 134.074219 222.367188 C 139.457031 212.476562 144.328125 202.335938 148.683594 191.953125 C 154.992188 176.183594 161.265625 159.972656 167.265625 144.363281 Z M 159.792969 204.464844 C 156.058594 212.003906 152.195312 219.871094 147.988281 228.675781 L 226.617188 228.675781 L 226.484375 228.34375 C 222.613281 220.207031 218.742188 212.132812 214.875 204.214844 C 214.453125 203.78125 213.941406 203.558594 213.339844 203.546875 C 203.667969 203.480469 193.730469 203.480469 183.65625 203.480469 C 176.324219 203.480469 168.914062 203.480469 161.445312 203.546875 C 160.777344 203.640625 160.226562 203.949219 159.792969 204.464844 Z M 198.414062 163.574219 L 198.097656 163.445312 L 198.097656 163.175781 L 196.453125 158.441406 C 195.316406 155.152344 194.1875 151.898438 192.984375 148.570312 L 191.246094 143.835938 C 190.050781 140.367188 188.785156 136.964844 187.445312 133.164062 L 186.113281 137.03125 C 182.78125 146.304688 179.78125 154.710938 176.789062 163.179688 L 176.589844 163.515625 C 176.355469 163.851562 176.152344 164.207031 175.984375 164.578125 C 173.988281 169.988281 171.921875 175.25 169.851562 180.523438 L 167.183594 187.328125 C 167.050781 187.601562 166.960938 187.890625 166.917969 188.195312 L 208.050781 188.195312 L 205.714844 182.160156 C 203.285156 175.914062 200.882812 169.691406 198.414062 163.574219 Z M 198.414062 163.574219 " fill-opacity="1" fill-rule="nonzero"/></g></svg>