<svg xmlns="http://www.w3.org/2000/svg" xmlns:xlink="http://www.w3.org/1999/xlink" width="1080" zoomAndPan="magnify" viewBox="0 0 810 809.999993" height="1080" preserveAspectRatio="xMidYMid meet" version="1.0"><defs><clipPath id="1dce63e66e"><path d="M 56.953125 0 L 753.046875 0 L 753.046875 810 L 56.953125 810 Z M 56.953125 0 " clip-rule="nonzero"/></clipPath><clipPath id="95a17664a2"><path d="M 405 0 L 753.046875 202.5 L 753.046875 607.5 L 405 810 L 56.953125 607.5 L 56.953125 202.5 Z M 405 0 " clip-rule="nonzero"/></clipPath><clipPath id="9fc86d5bb2"><path d="M 279 147.246094 L 541 147.246094 L 541 662.496094 L 279 662.496094 Z M 279 147.246094 " clip-rule="nonzero"/></clipPath><clipPath id="1fe942e68f"><path d="M 116.601562 275 L 298 275 L 298 554 L 116.601562 554 Z M 116.601562 275 " clip-rule="nonzero"/></clipPath><clipPath id="571845993a"><path d="M 512 275 L 693.351562 275 L 693.351562 554 L 512 554 Z M 512 275 " clip-rule="nonzero"/></clipPath></defs><g clip-path="url(#1dce63e66e)"><g clip-path="url(#95a17664a2)"><path fill="#e89c08" d="M 56.953125 0 L 753.046875 0 L 753.046875 810.296875 L 56.953125 810.296875 Z M 56.953125 0 " fill-opacity="1" fill-rule="nonzero"/></g></g><g clip-path="url(#9fc86d5bb2)"><path fill="#000000" d="M 279.132812 639.609375 L 486.085938 147.261719 L 540.582031 170.144531 L 333.625 662.496094 Z M 279.132812 639.609375 " fill-opacity="1" fill-rule="nonzero"/></g><g clip-path="url(#1fe942e68f)"><path fill="#000000" d="M 255.96875 553.792969 L 116.847656 414.730469 L 255.96875 275.671875 L 297.761719 317.449219 L 200.4375 414.730469 L 297.761719 512.015625 Z M 255.96875 553.792969 " fill-opacity="1" fill-rule="nonzero"/></g><g clip-path="url(#571845993a)"><path fill="#000000" d="M 553.914062 553.792969 L 512.121094 512.015625 L 609.445312 414.730469 L 512.121094 317.449219 L 553.914062 275.671875 L 693.035156 414.730469 Z M 553.914062 553.792969 " fill-opacity="1" fill-rule="nonzero"/></g></svg>